<?xml version="1.0" encoding="UTF-8"?>
<svg version="1.1" xmlns="http://www.w3.org/2000/svg" width="1200" height="448" viewBox="0 0 1200 448">
<path d="M0 0 C2.49688366 -0.00435428 4.99376599 -0.00953981 7.49064636 -0.01548767 C13.53826401 -0.02743488 19.58581638 -0.03003788 25.63343984 -0.02768741 C30.55851851 -0.02589458 35.48358381 -0.02767442 40.40866089 -0.03191185 C41.11325575 -0.03250704 41.81785061 -0.03310223 42.54379684 -0.03371545 C43.97587101 -0.03492739 45.40794518 -0.03614153 46.84001935 -0.03735783 C60.23528429 -0.04820476 73.63052399 -0.04608504 87.02579033 -0.03997298 C99.2278324 -0.03481237 111.42979443 -0.04604172 123.63182068 -0.0650712 C136.2128422 -0.08453854 148.79382603 -0.09268974 161.37486267 -0.08894795 C168.41715123 -0.08704855 175.45937183 -0.08939834 182.50164795 -0.10366249 C189.13382809 -0.11696177 195.76587631 -0.11419669 202.39806557 -0.1012516 C204.81370411 -0.09890897 207.22935419 -0.10153593 209.64497948 -0.10987473 C242.98977778 -0.21655857 277.84771095 4.30225172 307.22265625 21.18481445 C309.99204555 22.55124414 309.99204555 22.55124414 312.671875 21.6574707 C315.08951353 20.26358791 317.28332873 18.77190588 319.5078125 17.0871582 C334.86090143 6.19507004 352.74164125 0.15540876 371.55371094 0.09765625 C372.49127731 0.09108505 373.42884369 0.08451385 374.39482117 0.07774353 C377.48977759 0.05808007 380.58468543 0.04635824 383.6796875 0.03637695 C384.74394203 0.03230143 385.80819656 0.0282259 386.90470123 0.02402687 C392.54697981 0.00318738 398.18923428 -0.01111885 403.83154297 -0.02050781 C409.6141476 -0.03151768 415.39636165 -0.06586084 421.17882919 -0.10567951 C425.6626041 -0.13203904 430.14628905 -0.14021707 434.63013458 -0.14378929 C436.75883853 -0.14861201 438.88753966 -0.16009995 441.01616669 -0.17882729 C457.24163492 -0.3126092 472.88455959 0.90180642 487.9453125 7.5246582 C488.63890869 7.82130371 489.33250488 8.11794922 490.04711914 8.42358398 C499.93730771 12.80931983 508.11986712 18.93539879 515.9140625 26.3918457 C517.90865563 28.1335013 519.65325229 29.23092766 522.0703125 30.2746582 C522.54597656 29.74098633 523.02164063 29.20731445 523.51171875 28.6574707 C540.92736833 10.11926544 565.34376355 0.72333658 590.55373716 -0.17957675 C594.93216485 -0.26168201 599.30759249 -0.25152978 603.68652344 -0.22705078 C605.6603636 -0.23084687 607.63420107 -0.2363574 609.60803223 -0.24342346 C614.9059273 -0.25723102 620.20349222 -0.24631128 625.50136852 -0.22971225 C631.09012706 -0.21570922 636.67886934 -0.22233927 642.26763916 -0.22584534 C651.651461 -0.22853643 661.03515413 -0.21517016 670.41894531 -0.19189453 C681.20484067 -0.16532304 691.99052066 -0.16353206 702.77643752 -0.1752829 C713.22661908 -0.18613675 723.67672418 -0.17981241 734.12689972 -0.16572762 C738.53932799 -0.1600302 742.95169915 -0.16000055 747.36412811 -0.16479301 C800.18123546 -0.20755369 800.18123546 -0.20755369 823.2578125 5.9621582 C824.23790283 6.21779541 825.21799316 6.47343262 826.2277832 6.73681641 C853.68485288 14.15914086 879.10417913 26.76258566 899.921875 46.30200195 C902.09037136 48.341989 902.09037136 48.341989 904.63671875 50.30200195 C908.2610425 53.23985668 911.0879757 56.70329438 914.0703125 60.2746582 C915.01583984 61.3884082 915.01583984 61.3884082 915.98046875 62.5246582 C944.32230311 96.78278006 956.24779758 141.7537737 952.3828125 185.7121582 C949.31618281 215.93501756 938.37264597 247.10925216 918.2578125 270.30200195 C916.89270592 272.17601274 916.89270592 272.17601274 917.1015625 274.27075195 C918.43117469 277.02111911 920.2302769 278.4424062 922.5703125 280.3996582 C939.7298328 295.40812753 952.15008192 315.50262992 954.38793945 338.54516602 C954.54159379 341.83669519 954.58954076 345.10465505 954.5703125 348.3996582 C954.56386719 349.57181885 954.55742188 350.74397949 954.55078125 351.95166016 C954.11068519 373.11535837 946.41082774 391.91029284 933.0703125 408.2746582 C932.03970703 409.55083008 932.03970703 409.55083008 930.98828125 410.8527832 C917.89091513 426.23923853 900.34667096 435.29946433 881.0703125 440.2746582 C879.66845703 440.64397461 879.66845703 440.64397461 878.23828125 441.02075195 C851.60425353 446.67512094 821.91940547 440.80216793 799.0703125 426.2746582 C795.59277976 423.76812486 792.32810242 421.0590139 789.0703125 418.2746582 C788.55098145 417.83347656 788.03165039 417.39229492 787.49658203 416.93774414 C783.95429615 413.92809394 780.42983447 410.89824934 776.91113281 407.86108398 C774.4471314 405.73759842 771.97522837 403.62341811 769.50341797 401.5090332 C763.99627442 396.79754771 758.50589539 392.06877479 753.0703125 387.2746582 C752.52503906 388.15766602 751.97976563 389.04067383 751.41796875 389.95043945 C746.47344102 397.85946903 741.26268413 405.26779445 735.0703125 412.2746582 C734.44769531 412.98106445 733.82507813 413.6874707 733.18359375 414.4152832 C715.19080953 433.57740979 688.43086888 443.23254355 662.66796875 444.2355957 C637.46653074 444.74362383 614.2875662 436.76311812 595.9296875 419.30981445 C594.84833052 418.25974711 593.77016971 417.20637781 592.6953125 416.1496582 C592.19499512 415.65892822 591.69467773 415.16819824 591.17919922 414.66259766 C587.96497932 411.41850582 585.47925761 408.1221203 583.0703125 404.2746582 C579.71119406 406.20661871 576.57915086 408.32754539 573.46826172 410.63647461 C532.48629728 440.90205897 477.89811112 449.94217848 428.05883789 442.68505859 C387.24365348 436.07604336 349.20704809 417.94175844 323.9140625 384.30200195 C312.36305153 368.27259421 298.49595722 344.6642705 299.0703125 324.2746582 C298.20792969 324.77094727 297.34554687 325.26723633 296.45703125 325.77856445 C270.11853851 340.58639756 240.22426936 347.16752145 210.0703125 346.2746582 C209.80855225 347.37064331 209.80855225 347.37064331 209.54150391 348.48876953 C204.06959641 370.94153097 197.10315169 393.05712647 181.0703125 410.2746582 C180.19246094 411.22083008 179.31460937 412.16700195 178.41015625 413.1418457 C159.47271799 433.0419203 133.98957916 443.24373508 106.7890625 444.2355957 C81.72618381 444.71836427 58.75268686 435.80009769 40.0703125 419.2746582 C38.74759896 418.26065294 37.41793922 417.25531105 36.0703125 416.2746582 C35.03777344 416.89211914 34.00523437 417.50958008 32.94140625 418.14575195 C-13.32857702 445.18406776 -69.34478217 450.67909927 -120.9296875 437.2746582 C-142.15038417 431.57104124 -163.07946675 422.14873046 -180.9296875 409.2746582 C-181.46948242 408.88600586 -182.00927734 408.49735352 -182.56542969 408.09692383 C-211.3191975 387.20038806 -233.17566403 359.75513118 -242.9296875 325.2746582 C-243.27 324.14801758 -243.6103125 323.02137695 -243.9609375 321.8605957 C-250.48939996 296.0489895 -246.72085544 267.28968923 -233.23828125 244.40356445 C-219.67964788 224.2386364 -199.95924341 209.99474954 -175.9296875 205.2746582 C-174.26322895 205.2483205 -172.59605859 205.24327108 -170.9296875 205.2746582 C-171.32800781 204.27047852 -171.72632813 203.26629883 -172.13671875 202.23168945 C-185.25549875 168.59336797 -183.82174596 133.17157514 -169.6171875 100.1496582 C-150.97820328 58.430468 -115.42405798 27.29344067 -73.0546875 10.8996582 C-48.96513367 2.46207354 -25.31097758 -0.0292992 0 0 Z M-97.9296875 98.2746582 C-107.75787402 110.6437905 -115.18881862 124.89771822 -118.9296875 140.2746582 C-119.15398437 141.18860352 -119.37828125 142.10254883 -119.609375 143.04418945 C-124.17066126 165.38199544 -120.52674487 189.37177057 -108.7421875 208.8996582 C-96.54208333 226.94508701 -80.29364426 239.4957513 -62.9296875 252.2746582 C-39.4201774 269.61947852 -39.4201774 269.61947852 -35.9296875 280.2746582 C-35.32843613 286.18929374 -34.6956738 292.90015946 -37.4921875 298.3371582 C-43.92421779 306.08857932 -50.84828843 308.07997346 -60.6171875 309.0246582 C-74.99803546 309.83120312 -86.48362122 306.19540129 -97.5546875 296.8371582 C-103.882532 290.79237746 -108.35509097 283.66781699 -112.9296875 276.2746582 C-120.0451208 264.89659936 -127.66902219 256.8757246 -140.8671875 252.9621582 C-152.72619662 250.48059493 -163.43596352 253.0437682 -173.54296875 259.4855957 C-181.45908253 265.41944204 -188.14474344 274.36026593 -189.9296875 284.2746582 C-191.56427255 305.47756136 -184.46682989 322.86946288 -170.8515625 339.04418945 C-170.21734375 339.78024414 -169.583125 340.51629883 -168.9296875 341.2746582 C-168.37796875 341.95915039 -167.82625 342.64364258 -167.2578125 343.34887695 C-146.4052557 368.62018984 -112.14977356 382.48161182 -80.24609375 385.80981445 C-46.64761719 388.62239673 -11.49407847 380.23025138 14.89599609 358.71826172 C34.76357139 341.87795843 46.65105657 319.83378766 51.0703125 294.2746582 C51.410625 292.3255957 51.410625 292.3255957 51.7578125 290.3371582 C53.37401124 274.17517083 51.29023361 258.91284991 44.0703125 244.2746582 C43.60109375 243.32333008 43.131875 242.37200195 42.6484375 241.3918457 C32.52955142 222.60678491 15.57620591 208.56869926 -1.05126953 195.73266602 C-32.02434949 171.69169467 -32.02434949 171.69169467 -33.8671875 159.3371582 C-34.209351 153.55547246 -33.27883688 149.00810115 -29.44921875 144.55200195 C-22.60848654 138.18088522 -15.18679116 136.82502139 -6.15812683 136.89370728 C-5.2035014 136.8890273 -4.24887598 136.88434733 -3.26532251 136.87952554 C-0.08193037 136.8676058 3.10102886 136.8770212 6.28442383 136.88647461 C8.57314809 136.8824075 10.8618704 136.87706483 13.15058899 136.87054443 C19.35731652 136.85687946 25.56389428 136.86216682 31.7706244 136.87168169 C38.27308695 136.87928522 44.77553681 136.87223049 51.27799988 136.86752319 C62.89980323 136.86171711 74.52153836 136.87103408 86.14333095 136.8863012 C96.66370293 136.89969416 107.18397554 136.89738333 117.7043457 136.88354492 C129.93858067 136.86745951 142.17274491 136.86153145 154.40699023 136.87038171 C160.87667041 136.87505039 167.34628228 136.87570543 173.81595802 136.86577225 C179.90222008 136.8570805 185.98829532 136.863165 192.07453728 136.88045502 C194.30331233 136.88440857 196.53210321 136.88330529 198.76087189 136.87666702 C220.33260612 136.81836084 220.33260612 136.81836084 229.0703125 140.2746582 C230.06546875 140.65106445 231.060625 141.0274707 232.0859375 141.4152832 C241.72394224 146.20058625 247.02476075 152.29451608 251.0703125 162.2746582 C254.04660318 172.66296754 253.19941017 185.78343074 248.0703125 195.2746582 C241.66513559 206.21602423 231.90749815 211.56403783 220.0703125 215.2746582 C216.07299448 216.25208726 212.34848004 216.39042106 208.23828125 216.37231445 C206.94599609 216.3690918 205.65371094 216.36586914 204.32226562 216.36254883 C202.96744724 216.35419485 201.61262953 216.34572992 200.2578125 216.3371582 C198.88346515 216.3321382 197.50911605 216.32757617 196.13476562 216.32348633 C192.77990326 216.31171488 189.42513029 216.29527104 186.0703125 216.2746582 C186.245625 215.07067383 186.4209375 213.86668945 186.6015625 212.6262207 C187.96965199 201.51049362 183.97445682 191.50128678 178.0703125 182.2746582 C171.16332076 174.27839178 161.78946364 168.96780647 151.19921875 168.0168457 C139.13108408 167.582219 128.49589176 170.64884506 119.0703125 178.2746582 C118.14992188 178.99202148 118.14992188 178.99202148 117.2109375 179.72387695 C107.772702 188.01365459 103.91595724 201.77172691 100.6796875 213.45043945 C100.29414789 214.80119616 99.90731255 216.15158359 99.51930237 217.50163269 C98.69745886 220.37056987 97.88400774 223.24169188 97.07754517 226.11499023 C95.80355762 230.65381637 94.5112718 235.18730063 93.21557617 239.7199707 C91.86764287 244.43778852 90.52055036 249.15582956 89.17961121 253.87564087 C86.02768102 264.9648466 82.82054638 276.03695299 79.57421875 287.09887695 C79.35342274 287.8515365 79.13262672 288.60419605 78.90513992 289.37966347 C77.18918411 295.22806337 75.47070688 301.07572142 73.7509613 306.92300797 C72.74286423 310.35081164 71.73555292 313.77884028 70.73069763 317.20759583 C70.01221075 319.65897201 69.29199571 322.10984262 68.56971741 324.56010437 C68.25320724 325.6408876 67.93669708 326.72167084 67.6105957 327.83520508 C67.33560745 328.7707019 67.0606192 329.70619873 66.77729797 330.67004395 C63.45610293 342.90570124 64.42777632 354.8593268 70.61328125 366.0715332 C77.20764416 376.03098291 85.81693466 383.02228561 97.58984375 385.88793945 C109.31676693 387.71623141 120.17565524 385.32326901 129.9453125 378.5246582 C145.10262284 366.56183914 148.7530433 350.4290928 153.9453125 332.5871582 C154.56782675 330.46968476 155.19103844 328.35241624 155.81494141 326.23535156 C157.3126222 321.14664235 158.80144504 316.05540417 160.28613281 310.96289062 C161.3667525 307.25843752 162.45293737 303.55562487 163.5390625 299.8527832 C165.05913111 294.66283466 166.56973289 289.47027407 168.0703125 284.2746582 C169.12089844 284.40743164 170.17148437 284.54020508 171.25390625 284.67700195 C172.67187073 284.85542132 174.08983972 285.0338048 175.5078125 285.2121582 C176.19552734 285.29916992 176.88324219 285.38618164 177.59179688 285.47583008 C179.02208461 285.65544761 180.45277041 285.83191698 181.88378906 286.00561523 C183.29323801 286.17904229 184.70160554 286.36162358 186.10839844 286.55541992 C204.35024675 288.90249812 224.13868729 288.403036 242.0703125 284.2746582 C243.18140381 284.02522461 243.18140381 284.02522461 244.31494141 283.77075195 C268.36997142 278.19456985 289.74386612 266.88571601 307.0703125 249.2746582 C307.97652344 248.3671582 308.88273437 247.4596582 309.81640625 246.5246582 C316.00933634 240.03951985 320.70909388 233.0928255 325.0703125 225.2746582 C325.61558594 224.30786133 326.16085937 223.34106445 326.72265625 222.3449707 C332.4866086 211.52106018 336.271928 199.40329785 338.0703125 187.2746582 C338.23660156 186.15317383 338.23660156 186.15317383 338.40625 185.0090332 C341.86257192 156.79797318 335.55388635 127.67723777 318.16796875 104.86450195 C301.88804107 84.76470297 281.88331574 71.6378609 257.2578125 63.9621582 C256.17765869 63.61664917 256.17765869 63.61664917 255.07568359 63.26416016 C237.8520384 58.22719588 220.15010675 57.83205147 202.3515625 57.87060547 C199.93774096 57.8648884 197.52392211 57.85791903 195.11010742 57.84980774 C189.28541618 57.83385007 183.46084923 57.83174466 177.63614082 57.83702064 C172.89421631 57.8410937 168.15232344 57.83958204 163.41040039 57.83427238 C162.73059506 57.83352396 162.05078973 57.83277554 161.35038424 57.83200444 C159.96855354 57.83047267 158.58672284 57.82893432 157.20489216 57.82738947 C144.30517499 57.81372492 131.40551882 57.81905997 118.50580311 57.83057468 C106.7514472 57.84050726 94.99724871 57.8275552 83.24291706 57.80364049 C71.11487795 57.77915502 58.98691187 57.76966429 46.85884857 57.77629322 C40.07325151 57.77976373 33.28777538 57.7776982 26.50219727 57.76004219 C20.11941371 57.74446484 13.73692872 57.74864745 7.35415649 57.76734734 C5.02755791 57.77100315 2.70093666 57.76801393 0.37435913 57.75746155 C-37.73526306 57.59795913 -72.17179658 69.09549016 -97.9296875 98.2746582 Z M344.9609375 71.41137695 C337.52679274 80.25928001 335.08250266 89.93772286 335.6328125 101.34106445 C336.83506617 112.15061311 342.06857637 120.10377327 350.0703125 127.2746582 C362.2017974 136.68153092 376.3732016 136.82882534 391.0703125 137.2746582 C390.46247775 143.28973772 389.24230731 148.85063412 387.58935547 154.65869141 C387.33710709 155.56258606 387.0848587 156.46648071 386.82496643 157.39776611 C385.99273775 160.37515867 385.15255382 163.35024622 384.3125 166.32543945 C383.72477884 168.42392709 383.1376413 170.52257826 382.55105591 172.62138367 C381.00339849 178.15419456 379.44935521 183.68518952 377.89349365 189.21569824 C368.10954115 223.76899985 368.10954115 223.76899985 358.765625 258.44262695 C358.49330048 259.48123367 358.22097595 260.51984039 357.94039917 261.58992004 C352.95811057 281.01212704 352.69547067 303.1501327 359.0703125 322.2746582 C359.63105469 324.01875977 359.63105469 324.01875977 360.203125 325.7980957 C368.30317714 348.81082662 385.79853186 365.59647884 407.30859375 376.11450195 C438.79529478 390.77373899 477.72688321 389.80735983 510.0703125 378.2746582 C535.36053642 368.45067794 555.41723867 350.59459591 569.0703125 327.2746582 C569.58078125 326.40405762 569.58078125 326.40405762 570.1015625 325.51586914 C574.75607346 317.37502038 578.08038912 308.85502882 581.03125 299.9699707 C581.41308441 298.82068588 581.79491882 297.67140106 582.18832397 296.48728943 C587.91965891 278.92540017 592.82368859 261.10788359 597.84737015 243.334095 C599.27965355 238.27188432 600.71892505 233.21166225 602.15795898 228.15136719 C603.87384214 222.11663986 605.58951883 216.08185616 607.30241394 210.04627991 C612.17408512 192.88314444 617.10710187 175.73835419 622.06988525 158.60134888 C622.65195846 156.59127056 623.23382533 154.58113247 623.81544495 152.57092285 C624.32082911 150.82461191 624.82689727 149.07849869 625.33384705 147.3326416 C626.30123252 143.99160808 627.24160978 140.65268933 628.0703125 137.2746582 C646.88178339 137.18098538 665.69320658 137.11056698 684.50486279 137.06740952 C693.24054474 137.04683314 701.97608132 137.01880741 710.71166992 136.97290039 C718.33056454 136.93288107 725.9493538 136.90718964 733.56835061 136.89830422 C737.59810554 136.89311487 741.62755919 136.88102238 745.65721703 136.85173798 C749.46002275 136.8243294 753.26240677 136.81626374 757.0653019 136.82222748 C759.10608971 136.82062424 761.14683295 136.79923596 763.1875 136.77697754 C776.07960126 136.83385561 788.01740567 139.85976495 798.0703125 148.2746582 C806.39367646 157.48218903 808.65244787 166.41017251 808.34765625 178.6262207 C807.56001465 188.98759047 803.44403026 196.97314011 796.03515625 204.2824707 C784.04092045 214.33934355 770.19344429 216.60726191 755.0703125 216.3996582 C753.81863281 216.39063477 752.56695313 216.38161133 751.27734375 216.37231445 C748.2081324 216.34888536 745.13932494 216.31607968 742.0703125 216.2746582 C742.08336426 215.47946777 742.09641602 214.68427734 742.10986328 213.86499023 C742.23888996 200.41139848 739.63964281 189.64512636 730.5078125 179.3996582 C729.30125 178.3477832 729.30125 178.3477832 728.0703125 177.2746582 C726.9565625 176.2537207 726.9565625 176.2537207 725.8203125 175.2121582 C716.9924469 168.99252562 707.70521884 167.3978108 697.0703125 168.2746582 C684.51422432 170.75302995 674.72060444 176.39199677 666.82421875 186.4543457 C661.93895305 194.30993999 659.51860736 202.98384297 657.0078125 211.8215332 C656.6200388 213.1676972 656.23165476 214.51368552 655.8427124 215.85951233 C654.79532334 219.4898496 653.75582993 223.12239898 652.7184906 226.75561905 C650.951247 232.94210533 649.1746296 239.12591397 647.39919281 245.31005287 C646.93849874 246.91532358 646.47813863 248.52069016 646.01810455 250.12615013 C642.75325155 261.51803268 639.41578361 272.88604418 636.0171051 284.23868942 C634.61644043 288.92506911 633.2273061 293.61488235 631.83805084 298.30465508 C630.72901865 302.04430361 629.61217088 305.78124169 628.47705078 309.51306152 C627.40801798 313.02792445 626.35989139 316.54840174 625.32611847 320.0737896 C624.76860401 321.95505034 624.18924273 323.8297955 623.60882568 325.70411682 C619.88230263 338.54697385 619.11632813 351.94272154 625.0703125 364.2746582 C626.82286139 367.20904121 628.78591289 369.73765671 631.0703125 372.2746582 C631.6065625 372.89083008 632.1428125 373.50700195 632.6953125 374.1418457 C640.44479414 382.50124025 649.58330069 386.19667073 660.8203125 386.6496582 C672.88405071 386.39136658 682.6389391 381.35564043 691.29296875 373.1730957 C699.89436205 364.07330391 703.28449694 353.1439764 706.64453125 341.32543945 C707.05773915 339.89894178 707.47180279 338.47269175 707.88667297 337.04667664 C708.96790832 333.32171008 710.03758233 329.59352318 711.10473633 325.86450195 C712.19098477 322.07664195 713.28838163 318.29201618 714.38476562 314.50708008 C717.29962408 304.43523827 720.19082724 294.35666855 723.0703125 284.2746582 C729.1034318 288.49784172 734.37622454 293.28130599 739.72094727 298.32006836 C744.08826033 302.41700456 748.61678639 306.22374524 753.29296875 309.96606445 C757.07848532 313.11267528 760.64536412 316.47153486 764.23681641 319.83569336 C767.56203573 322.93260523 770.95760321 325.87094812 774.5078125 328.7121582 C779.52873198 332.73912565 784.19453067 337.06680524 788.87646484 341.4753418 C793.19258128 345.51734407 797.67534881 349.27061237 802.29296875 352.96606445 C805.49478694 355.62749139 808.53213438 358.42979034 811.5703125 361.2746582 C817.20453896 366.53498673 822.96998593 371.55394395 829.0703125 376.2746582 C829.80507812 376.85086914 830.53984375 377.42708008 831.296875 378.02075195 C840.62160255 384.81932604 851.6344335 387.54880703 863.0703125 386.2746582 C873.08588385 384.46857157 882.0936968 379.47448719 888.53515625 371.5559082 C894.89970345 362.09815867 897.0157137 352.53843823 896.0703125 341.2746582 C892.55403706 324.28638768 879.6367448 314.72835506 866.59545898 304.64233398 C862.12220717 301.16200352 857.82714509 297.5154776 853.5703125 293.7746582 C847.56997786 288.5054798 841.40904319 283.50034555 835.09375 278.61450195 C834.09601563 277.84235352 833.09828125 277.07020508 832.0703125 276.2746582 C830.63558594 275.1937793 830.63558594 275.1937793 829.171875 274.09106445 C828.47835938 273.49165039 827.78484375 272.89223633 827.0703125 272.2746582 C827.0703125 271.6146582 827.0703125 270.9546582 827.0703125 270.2746582 C827.57780029 270.02409668 828.08528809 269.77353516 828.6081543 269.51538086 C848.51817735 259.59747714 866.04392914 247.44850454 878.0703125 228.2746582 C878.83408203 227.12803711 878.83408203 227.12803711 879.61328125 225.95825195 C889.34861643 210.76712482 894.38252833 192.24675762 895.0703125 174.2746582 C895.11027344 173.59274414 895.15023437 172.91083008 895.19140625 172.20825195 C896.03477617 146.0637844 886.91819364 119.6572158 869.6328125 100.0871582 C868.12079323 98.47468109 866.6001084 96.87028009 865.0703125 95.2746582 C864.37292969 94.51411133 863.67554688 93.75356445 862.95703125 92.9699707 C842.0272246 70.85401414 808.58176614 59.04877433 778.61754417 58.08510399 C773.62043689 57.98541779 768.62361342 57.99236784 763.62573242 58 C761.71858523 57.99564245 759.81143978 57.99045587 757.90429688 57.98451233 C752.77035985 57.9712303 747.63649691 57.97053098 742.50254607 57.97307563 C738.20311218 57.97415167 733.9036929 57.96924642 729.60426217 57.96447021 C719.46117974 57.95341468 709.31813436 57.95291674 699.17504883 57.95898438 C688.73151789 57.96503568 678.28812129 57.95267474 667.84461325 57.93141431 C658.8505897 57.91378199 649.85660887 57.90779911 640.86256868 57.91105205 C635.50245487 57.91286077 630.14243715 57.91026881 624.7823391 57.89633751 C619.74657849 57.88373546 614.71102758 57.88572575 609.67527008 57.8987484 C607.83307892 57.90110768 605.99087288 57.89840285 604.14869881 57.89012527 C589.56395796 57.8293372 577.03448058 59.06780777 565.8046875 69.34887695 C558.87077507 76.70652848 555.88669844 85.13566637 553.234375 94.74731445 C552.96665283 95.69419632 552.69893066 96.64107819 552.4230957 97.61665344 C551.82752929 99.72498653 551.23491931 101.83415637 550.64483643 103.94403076 C549.11863674 109.39791127 547.57247257 114.84612427 546.02756882 120.29473114 C545.43101206 122.39932758 544.83521493 124.50413825 544.2394104 126.60894775 C538.46374573 146.99631055 532.57364106 167.35098653 526.69793701 187.70968628 C525.37623991 192.28931772 524.05529896 196.86916599 522.73516846 201.44924927 C519.35071797 213.19120953 515.96203393 224.93191593 512.56114006 236.66912556 C510.97342938 242.14964265 509.3915763 247.63178466 507.81630135 253.1158886 C506.91276279 256.25640597 506.00347593 259.39523599 505.09244919 262.53358841 C504.68682685 263.93517723 504.2835435 265.3374458 503.88298416 266.74048996 C495.50647792 296.06209613 495.50647792 296.06209613 483.0703125 304.2746582 C472.87003367 308.16047871 464.25338173 308.19385628 454.0703125 304.2746582 C447.76929318 301.30247928 445.57395025 296.49884129 443.0703125 290.2746582 C440.10910274 280.6280498 442.32789384 270.39166642 444.9921875 260.96606445 C445.30492615 259.81239883 445.61766479 258.65873322 445.93988037 257.47010803 C446.96194233 253.73195559 448.01192719 250.00267962 449.0703125 246.2746582 C449.422146 245.02948425 449.77397949 243.7843103 450.13647461 242.50140381 C452.60989445 233.78001365 455.14181717 225.07622255 457.68783188 216.37579346 C458.77020846 212.6731217 459.84756259 208.96898984 460.92504883 205.26489258 C461.36939598 203.73751713 461.8137472 202.21014287 462.25810242 200.68276978 C462.47995398 199.92017475 462.70180553 199.15757973 462.93037987 198.37187576 C463.60687958 196.04715377 464.28387425 193.72257647 464.96101379 191.39804077 C469.49641594 175.82664477 474.00175875 160.24662842 478.49279785 144.66238403 C479.53831904 141.03475207 480.58611316 137.40778092 481.63446712 133.78096676 C482.41501196 131.07903492 483.19380232 128.37659986 483.97206306 125.67400932 C484.50370019 123.82958147 485.03727428 121.98571227 485.57090759 120.14186096 C485.88741776 119.04099655 486.20392792 117.94013214 486.5300293 116.8059082 C486.80501755 115.85264648 487.0800058 114.89938477 487.36332703 113.91723633 C490.62994398 101.70723933 489.65833809 89.98794024 483.71484375 78.70043945 C482.2803282 76.43521249 480.75915751 74.35606767 479.0703125 72.2746582 C478.56886719 71.64946289 478.06742188 71.02426758 477.55078125 70.38012695 C472.0552675 64.24280138 464.1264886 59.9785513 456.0703125 58.2746582 C453.2710234 58.16994851 450.49627922 58.11747286 447.69677734 58.11352539 C446.85394196 58.10856049 446.01110657 58.10359558 445.14273071 58.09848022 C442.35556213 58.08388225 439.56845053 58.07705917 436.78125 58.0715332 C434.83794148 58.06577812 432.89463297 58.06002043 430.95132446 58.05426025 C426.87428524 58.04375582 422.79726569 58.03791006 418.72021484 58.03442383 C413.51526248 58.02895197 408.3105734 58.00494958 403.10570335 57.97645187 C399.08891054 57.95775334 395.07218009 57.95261598 391.05534744 57.95108795 C389.13774813 57.94807523 387.22014954 57.94009373 385.30259323 57.92690277 C368.89442358 57.82212257 357.08372602 59.13144118 344.9609375 71.41137695 Z " fill="#FFFFFF" transform="translate(245.9296875,-0.274658203125)"/>
</svg>
